<svg width="160" height="85" viewBox="0 0 160 85" fill="none" xmlns="http://www.w3.org/2000/svg">
<path opacity="0.1" d="M-15.3779 -118.875C8.40578 -117.33 29.6598 -102.548 41.7372 -81.9462C53.5233 -61.8412 53.3601 -37.3772 45.2008 -15.5383C37.1847 5.91736 21.0607 23.4015 -0.479416 31.049C-22.3608 38.8176 -50.6882 41.2729 -66.2999 24.0483C-80.6808 8.18168 -60.9493 -15.5329 -62.1033 -36.9416C-63.1119 -55.6515 -81.6894 -73.0946 -72.4133 -89.3603C-61.24 -108.953 -37.8398 -120.334 -15.3779 -118.875Z" fill="#0556F3"/>
<path opacity="0.1" d="M169.268 -58.5041C189.113 -45.0516 209.976 -28.2781 210.971 -4.30908C211.91 18.2896 189.599 32.2275 173.704 48.3054C158.208 63.9806 144.715 84.744 122.684 84.9958C98.6005 85.2711 73.0887 71.8172 63.8353 49.5612C55.4897 29.4886 77.9977 11.8076 83.5112 -9.22157C90.0128 -34.0194 75.8177 -68.1007 98.0315 -80.8665C120.737 -93.9151 147.589 -73.1991 169.268 -58.5041Z" fill="#0556F3"/>
</svg>
