<svg width="160" height="100" viewBox="0 0 160 100" fill="none" xmlns="http://www.w3.org/2000/svg">
<path opacity="0.1" d="M-21.4996 59.5004C-50.4996 71.5008 -51.2536 44.5743 -63.6151 30.9008C-77.2334 15.8371 -84.8072 -5.3607 -79.0599 -24.8016C-73.4915 -43.6376 -54.517 -53.5578 -36.3712 -61.2559C-18.825 -68.6997 0.603546 -74.0813 17.815 -65.8997C35.5477 -57.4704 70.9677 -51.0338 72 -31.5C72.0004 -4.5 27.0094 -5.5 11.4096 10.0998C-4.19029 25.6997 7.50038 47.5001 -21.4996 59.5004Z" fill="#0556F3"/>
<path opacity="0.1" d="M211 -10.501C224.398 8.47183 260.989 14.6461 260.781 37.8719C260.551 63.4436 239.723 85.4448 216.265 95.6268C194.473 105.086 170.299 97.172 149.166 86.3181C129.9 76.423 110.862 61.6085 108.185 40.116C105.74 20.491 128.19 9.38271 137.402 -8.11734C151.31 -34.5372 144.211 -83.5091 174.033 -84.9699C203.728 -86.4245 193.85 -34.7865 211 -10.501Z" fill="#0556F3"/>
</svg>
